<?xml version="1.0" encoding="UTF-8" standalone="no"?>
<!DOCTYPE svg PUBLIC "-//W3C//DTD SVG 1.1//EN" "http://www.w3.org/Graphics/SVG/1.1/DTD/svg11.dtd">
<svg width="100%" height="100%" viewBox="0 0 4453 3281" version="1.1" xmlns="http://www.w3.org/2000/svg" xmlns:xlink="http://www.w3.org/1999/xlink" xml:space="preserve" xmlns:serif="http://www.serif.com/" style="fill-rule:evenodd;clip-rule:evenodd;stroke-linejoin:round;stroke-miterlimit:2;">
    <g transform="matrix(1,0,0,1,-28.0589,-405.097)">
        <g transform="matrix(4.16667,0,0,4.16667,0,0)">
            <g transform="matrix(1.33863,0,0,1.33863,52.3654,714.511)">
                <path d="M0,125.015C-8.644,125.015 -16.932,123.348 -27.504,120.657C-28.007,120.529 -28.408,120.15 -28.564,119.655C-29.713,116.015 -32.411,94.595 -32.585,91.802C-32.632,91.046 -32.108,90.373 -31.364,90.234L-28.488,89.695C-28.395,89.678 -28.302,89.669 -28.21,89.669C-27.536,89.669 -26.929,90.125 -26.758,90.802C-22.47,107.759 -11.393,117.883 2.875,117.883C10.307,117.883 19.166,114.589 19.166,98.897C19.166,88.708 13.578,80.976 0.481,73.046C-16.527,62.652 -29.532,53.207 -29.532,34.384C-29.532,14.14 -13.102,0 10.423,0C17.891,0 23.963,0.972 28.396,1.681C30.497,2.017 32.156,2.283 33.316,2.338C34.054,2.373 34.657,2.94 34.736,3.675C35.393,9.753 36.493,19.926 37.784,28.778C37.9,29.574 37.367,30.32 36.576,30.468L33.701,31.007C33.607,31.025 33.515,31.033 33.423,31.033C32.749,31.034 32.141,30.577 31.97,29.901C29.342,19.515 22.91,7.133 7.188,7.133C-2.45,7.133 -8.204,13.626 -8.204,24.502C-8.204,34.796 -2.699,39.893 12.805,49.088C28.628,58.473 42.832,68.518 42.832,88.115C42.832,109.496 24.818,125.015 0,125.015" style="fill:rgb(23,57,75);fill-rule:nonzero;"/>
            </g>
        </g>
        <g transform="matrix(4.16667,0,0,4.16667,0,0)">
            <g transform="matrix(1.33863,0,0,1.33863,66.3178,883.869)">
                <path d="M0,-128.015C-24.408,-128.015 -41.455,-113.259 -41.455,-92.131C-41.455,-82.979 -38.392,-75.169 -32.092,-68.254C-26.39,-61.996 -18.412,-56.888 -10.729,-52.193C1.871,-44.563 7.243,-37.215 7.243,-27.619C7.243,-16.016 2.267,-10.133 -7.548,-10.133C-21.084,-10.133 -31.618,-19.833 -35.726,-36.082C-36.068,-37.434 -37.284,-38.347 -38.632,-38.347C-38.815,-38.347 -39.001,-38.33 -39.187,-38.295L-42.064,-37.756C-43.552,-37.477 -44.6,-36.132 -44.505,-34.62C-44.326,-31.756 -41.632,-10.254 -40.417,-6.409C-40.105,-5.419 -39.303,-4.661 -38.297,-4.405C-27.611,-1.686 -19.221,0 -10.423,0C15.265,0 33.909,-16.15 33.909,-38.401C33.909,-58.786 19.358,-69.104 3.147,-78.718C-12.064,-87.739 -17.127,-92.37 -17.127,-102.014C-17.127,-112.098 -12.063,-117.882 -3.234,-117.882C8.613,-117.882 16.461,-110.603 20.093,-96.247C20.435,-94.895 21.651,-93.982 22.999,-93.982C23.182,-93.982 23.368,-93.999 23.554,-94.034L26.429,-94.573C28.011,-94.87 29.077,-96.362 28.845,-97.954C27.558,-106.779 26.46,-116.934 25.804,-123.002C25.646,-124.471 24.44,-125.606 22.964,-125.676C21.887,-125.727 20.183,-126 18.21,-126.315C13.727,-127.033 7.587,-128.015 0,-128.015M0,-125.015C10.962,-125.015 19.049,-122.859 22.822,-122.679C23.54,-116.031 24.619,-106.147 25.876,-97.522L23.001,-96.983C19.228,-111.897 10.602,-120.882 -3.234,-120.882C-14.016,-120.882 -20.127,-113.514 -20.127,-102.014C-20.127,-90.692 -13.837,-85.302 1.617,-76.137C17.071,-66.972 30.909,-57.268 30.909,-38.401C30.909,-17.735 13.477,-3 -10.423,-3C-19.228,-3 -27.673,-4.797 -37.557,-7.313C-38.635,-10.726 -41.331,-31.931 -41.511,-34.807L-38.635,-35.346C-34.682,-19.712 -24.079,-7.133 -7.548,-7.133C4.851,-7.133 10.243,-15.579 10.243,-27.619C10.243,-38.94 3.594,-47.027 -9.165,-54.753C-25.337,-64.636 -38.455,-73.801 -38.455,-92.131C-38.455,-110.639 -23.9,-125.015 0,-125.015" style="fill:white;fill-rule:nonzero;"/>
            </g>
        </g>
        <g transform="matrix(4.16667,0,0,4.16667,0,0)">
            <g transform="matrix(1.33863,0,0,1.33863,196.939,702.965)">
                <path d="M0,131.485C-0.512,131.485 -0.991,131.223 -1.267,130.787C-2.951,128.125 -5.406,124.183 -8.088,119.878C-14.125,110.184 -21.64,98.12 -23.482,95.664C-24.61,93.976 -25.303,93.221 -25.571,93.002C-25.778,92.906 -25.977,92.838 -26.173,92.79L-26.173,111.116C-26.173,123.028 -25.489,123.185 -17.117,125.104C-16.435,125.26 -15.93,125.872 -15.93,126.571L-15.93,129.446C-15.93,130.275 -16.601,130.946 -17.43,130.946L-58.042,130.946C-58.871,130.946 -59.542,130.275 -59.542,129.446L-59.542,126.571C-59.542,125.847 -59.025,125.226 -58.313,125.096C-50.485,123.658 -49.479,123.473 -49.479,111.116L-49.479,24.502C-49.479,19.452 -49.707,16.202 -50.872,14.533C-51.878,13.09 -53.829,12.46 -57.822,11.592C-58.512,11.442 -59.003,10.832 -59.003,10.126L-59.003,7.61C-59.003,6.822 -58.394,6.168 -57.608,6.113C-46.544,5.337 -34.175,2.87 -27.528,0.114C-27.344,0.038 -27.148,0 -26.954,0C-26.644,0 -26.336,0.096 -26.077,0.283C-25.655,0.588 -25.421,1.089 -25.458,1.607C-25.784,6.173 -26.173,13.915 -26.173,24.861L-26.173,86.35C-23.267,85.377 -21.137,83.566 -18.52,80.796C-14.655,76.579 -8.223,68.186 -4.648,63.004C-3.32,61.01 -3.367,60.355 -3.45,60.166C-3.997,58.917 -10.01,57.968 -12.273,57.61C-13.002,57.496 -13.54,56.867 -13.54,56.129L-13.54,53.433C-13.54,52.631 -12.909,51.97 -12.107,51.934C-12.107,51.934 23.698,50.316 23.721,50.316C24.106,50.316 24.478,50.464 24.757,50.731C25.053,51.014 25.221,51.406 25.221,51.816L25.221,54.511C25.221,55.24 24.696,55.864 23.978,55.989C11.809,58.106 9.196,60.386 3.953,65.797C0.483,69.485 -1.755,72.264 -4.125,75.207C-5.385,76.771 -6.682,78.381 -8.183,80.143C-3.118,87.722 8.169,104.414 16.827,115.778C22.823,123.714 23.755,124.089 30.413,125.088C31.147,125.198 31.69,125.828 31.69,126.571L31.69,129.446C31.69,130.275 31.019,130.946 30.19,130.946C16.661,130.946 5.971,131.136 0.088,131.483C0.059,131.484 0.03,131.485 0,131.485" style="fill:rgb(23,57,75);fill-rule:nonzero;"/>
            </g>
        </g>
        <g transform="matrix(4.16667,0,0,4.16667,0,0)">
            <g transform="matrix(1.33863,0,0,1.33863,160.857,872.95)">
                <path d="M0,-122.484L0.005,-122.484L0,-122.484ZM0,-128.484C-0.032,-128.484 -0.065,-128.484 -0.097,-128.482C-0.491,-128.47 -0.867,-128.381 -1.209,-128.231C-7.737,-125.54 -19.872,-123.132 -30.759,-122.368C-32.331,-122.257 -33.549,-120.95 -33.549,-119.375L-33.549,-116.858C-33.549,-115.447 -32.566,-114.226 -31.186,-113.927C-27.738,-113.177 -25.858,-112.61 -25.148,-111.593C-24.216,-110.257 -24.025,-106.985 -24.025,-102.483L-24.025,-15.868C-24.025,-10.796 -24.23,-7.118 -25.23,-5.657C-25.974,-4.57 -27.887,-4.052 -31.63,-3.364C-33.054,-3.103 -34.088,-1.861 -34.088,-0.413L-34.088,2.461C-34.088,4.118 -32.745,5.461 -31.088,5.461L9.524,5.461C11.181,5.461 12.524,4.118 12.524,2.461L12.524,-0.413C12.524,-1.812 11.558,-3.025 10.194,-3.338C6.265,-4.238 4.352,-4.715 3.566,-5.765C2.437,-7.274 2.281,-11.513 2.281,-15.868L2.281,-30.408C4.102,-27.972 11.586,-15.957 17.602,-6.299C20.241,-2.063 22.733,1.939 24.419,4.604C24.971,5.477 25.93,6 26.954,6C27.013,6 27.071,5.999 27.13,5.995C32.984,5.651 43.644,5.461 57.144,5.461C58.801,5.461 60.144,4.118 60.144,2.461L60.144,-0.413C60.144,-1.898 59.058,-3.16 57.589,-3.38C51.447,-4.301 50.805,-4.398 44.981,-12.106C36.684,-22.997 25.962,-38.799 20.646,-46.736C21.856,-48.179 22.94,-49.524 23.998,-50.837C26.349,-53.757 28.569,-56.514 32.014,-60.175C37.209,-65.535 39.605,-67.502 51.189,-69.518C52.626,-69.768 53.675,-71.015 53.675,-72.474L53.675,-75.169C53.675,-75.988 53.34,-76.772 52.747,-77.338C52.188,-77.872 51.445,-78.169 50.675,-78.169C50.63,-78.169 50.584,-78.168 50.539,-78.166L14.779,-76.549C13.177,-76.476 11.915,-75.156 11.915,-73.552L11.915,-70.855C11.915,-69.379 12.989,-68.122 14.447,-67.892C19.025,-67.169 21.035,-66.606 21.874,-66.211C21.738,-65.917 21.49,-65.462 21.044,-64.793C17.525,-59.691 11.15,-51.373 7.312,-47.185C5.503,-45.27 3.991,-43.879 2.281,-42.927L2.281,-102.123C2.281,-112.927 2.661,-120.587 2.983,-125.143C2.996,-125.255 3.003,-125.369 3.003,-125.484C3.003,-127.138 1.667,-128.479 0.014,-128.484L0,-128.484ZM0,-125.484C-0.18,-122.968 -0.719,-114.882 -0.719,-102.123L-0.719,-38.69C3.773,-39.589 6.468,-41.924 9.524,-45.159C13.477,-49.472 19.946,-57.917 23.54,-63.129C26.775,-67.98 25.158,-69.238 14.915,-70.855L14.915,-73.552L50.675,-75.169L50.675,-72.474C38.275,-70.316 35.401,-67.98 29.829,-62.231C24.08,-56.12 21.564,-52.347 16.891,-46.955C22.642,-38.331 33.963,-21.618 42.588,-10.297C48.698,-2.21 49.956,-1.492 57.144,-0.413L57.144,2.461C43.847,2.461 33.065,2.641 26.954,3C21.384,-5.805 7.367,-28.627 4.672,-32.22C3.594,-33.838 2.695,-34.916 2.156,-35.275C1.078,-35.814 0.18,-35.814 -0.719,-35.814L-0.719,-15.868C-0.719,-2.749 0.898,-2.39 9.524,-0.413L9.524,2.461L-31.088,2.461L-31.088,-0.413C-22.283,-2.031 -21.025,-3.109 -21.025,-15.868L-21.025,-102.483C-21.025,-113.983 -22.283,-115.061 -30.549,-116.858L-30.549,-119.375C-20.306,-120.094 -7.368,-122.429 0,-125.484M0,-125.484L0.005,-125.484" style="fill:white;fill-rule:nonzero;"/>
            </g>
        </g>
        <g transform="matrix(4.16667,0,0,4.16667,0,0)">
            <g transform="matrix(1.33863,0,0,1.33863,261.888,843.928)">
                <path d="M0,-67.981C-6.887,-67.981 -12.282,-73.613 -12.282,-80.802C-12.282,-88.111 -6.925,-93.623 0.18,-93.623C7.608,-93.623 13,-88.231 13,-80.802C13,-73.373 7.533,-67.981 0,-67.981M-18.688,25.642C-19.517,25.642 -20.188,24.971 -20.188,24.142L-20.188,21.267C-20.188,20.536 -19.66,19.911 -18.939,19.788C-10.467,18.35 -10.306,18.322 -10.306,4.914L-10.306,-31.385C-10.306,-41.27 -10.564,-41.358 -17.196,-43.623C-17.803,-43.83 -18.211,-44.4 -18.211,-45.042L-18.211,-47.558C-18.211,-48.318 -17.643,-48.958 -16.888,-49.047C-6.273,-50.307 3.288,-52.457 11.529,-55.438C11.695,-55.498 11.868,-55.527 12.04,-55.527C12.355,-55.527 12.668,-55.427 12.93,-55.234C13.333,-54.937 13.562,-54.457 13.538,-53.956C13.357,-50.165 13.18,-39.786 13.18,-33.002L13.18,4.914C13.18,17.883 13.877,18.028 22.408,19.798C23.104,19.943 23.603,20.556 23.603,21.267L23.603,24.142C23.603,24.971 22.932,25.642 22.103,25.642L-18.688,25.642Z" style="fill:rgb(23,57,75);fill-rule:nonzero;"/>
            </g>
        </g>
        <g transform="matrix(4.16667,0,0,4.16667,0,0)">
            <g transform="matrix(1.33863,0,0,1.33863,278.004,821.232)">
                <path d="M0,-34.073L0.005,-34.073L0,-34.073ZM0,-40.073C-0.344,-40.073 -0.689,-40.014 -1.02,-39.894C-9.156,-36.952 -18.605,-34.828 -29.105,-33.582C-30.614,-33.403 -31.751,-32.123 -31.751,-30.603L-31.751,-28.088C-31.751,-26.805 -30.935,-25.663 -29.721,-25.249C-26.603,-24.184 -25.127,-23.564 -24.622,-22.705C-23.903,-21.48 -23.845,-18.369 -23.845,-14.431L-23.845,21.868C-23.845,27.684 -23.911,31.608 -24.795,33.096C-25.346,34.023 -26.789,34.51 -31.23,35.264C-32.672,35.509 -33.728,36.758 -33.728,38.221L-33.728,41.096C-33.728,42.753 -32.384,44.096 -30.728,44.096L10.063,44.096C11.72,44.096 13.063,42.753 13.063,41.096L13.063,38.221C13.063,36.799 12.065,35.573 10.673,35.284C6.624,34.444 4.563,33.836 3.796,32.656C2.825,31.16 2.641,27.711 2.641,21.868L2.641,-16.048C2.641,-22.813 2.817,-33.157 2.997,-36.93C3.044,-37.932 2.588,-38.892 1.781,-39.487C1.258,-39.873 0.632,-40.073 0,-40.073M-11.86,-78.169C-19.82,-78.169 -25.822,-72.012 -25.822,-63.848C-25.822,-55.817 -19.768,-49.527 -12.04,-49.527C-3.637,-49.527 2.461,-55.55 2.461,-63.848C2.461,-72.146 -3.562,-78.169 -11.86,-78.169M0,-37.073C-0.18,-33.298 -0.359,-23.057 -0.359,-16.048L-0.359,21.868C-0.359,35.166 0.539,36.245 10.063,38.221L10.063,41.096L-30.728,41.096L-30.728,38.221C-21.205,36.604 -20.845,35.706 -20.845,21.868L-20.845,-14.431C-20.845,-24.854 -21.384,-25.572 -28.751,-28.088L-28.751,-30.603C-18.149,-31.861 -8.445,-34.018 0,-37.073M-11.86,-75.169C-5.211,-75.169 -0.539,-70.497 -0.539,-63.848C-0.539,-57.379 -5.211,-52.527 -12.04,-52.527C-17.969,-52.527 -22.822,-57.379 -22.822,-63.848C-22.822,-70.497 -17.969,-75.169 -11.86,-75.169" style="fill:white;fill-rule:nonzero;"/>
            </g>
        </g>
        <g transform="matrix(4.16667,0,0,4.16667,0,0)">
            <g transform="matrix(1.33863,0,0,1.33863,299.655,702.965)">
                <path d="M0,130.946C-0.829,130.946 -1.5,130.275 -1.5,129.446L-1.5,126.571C-1.5,125.84 -0.972,125.215 -0.251,125.092C8.232,123.652 8.563,123.595 8.563,110.217L8.563,24.502C8.563,13.9 8.328,13.538 0.189,11.585C-0.485,11.423 -0.961,10.82 -0.961,10.126L-0.961,7.61C-0.961,6.827 -0.36,6.177 0.419,6.114C9.938,5.353 21.582,3.038 30.809,0.072C30.959,0.024 31.114,0 31.268,0C31.597,0 31.922,0.109 32.189,0.316C32.581,0.621 32.796,1.099 32.765,1.594L32.704,2.537C32.491,5.729 32.049,12.369 32.049,26.119L32.049,110.217C32.049,123.469 32.049,123.469 40.361,125.099C41.064,125.237 41.572,125.854 41.572,126.571L41.572,129.446C41.572,130.275 40.901,130.946 40.072,130.946L0,130.946Z" style="fill:rgb(23,57,75);fill-rule:nonzero;"/>
            </g>
        </g>
        <g transform="matrix(4.16667,0,0,4.16667,0,0)">
            <g transform="matrix(1.33863,0,0,1.33863,341.511,872.228)">
                <path d="M0,-121.945L0.005,-121.945L0,-121.945ZM0,-127.945C-0.308,-127.945 -0.617,-127.898 -0.918,-127.801C-10.043,-124.869 -21.557,-122.579 -30.968,-121.826C-32.527,-121.702 -33.729,-120.4 -33.729,-118.836L-33.729,-116.319C-33.729,-114.932 -32.778,-113.726 -31.429,-113.402C-27.843,-112.541 -25.775,-111.882 -25.111,-110.864C-24.271,-109.574 -24.205,-106.209 -24.205,-101.944L-24.205,-16.228C-24.205,-10.644 -24.278,-6.574 -25.221,-5.039C-25.803,-4.091 -27.272,-3.596 -31.77,-2.832C-33.213,-2.587 -34.268,-1.338 -34.268,0.126L-34.268,3C-34.268,4.657 -32.925,6 -31.268,6L8.804,6C10.461,6 11.804,4.657 11.804,3L11.804,0.126C11.804,-1.309 10.789,-2.542 9.381,-2.818C5.489,-3.582 3.77,-4.059 3.203,-5.039C2.345,-6.52 2.281,-10.431 2.281,-16.228L2.281,-100.326C2.281,-114.027 2.721,-120.634 2.932,-123.809L2.994,-124.758C3.056,-125.748 2.625,-126.704 1.842,-127.313C1.309,-127.728 0.658,-127.945 0,-127.945M0,-124.945C-0.18,-122.07 -0.719,-115.6 -0.719,-100.326L-0.719,-16.228C-0.719,-2.39 -0.359,-1.671 8.804,0.126L8.804,3L-31.268,3L-31.268,0.126C-21.744,-1.492 -21.205,-2.39 -21.205,-16.228L-21.205,-101.944C-21.205,-113.085 -21.744,-114.163 -30.729,-116.319L-30.729,-118.836C-21.744,-119.555 -10.063,-121.711 0,-124.945" style="fill:white;fill-rule:nonzero;"/>
            </g>
        </g>
        <g transform="matrix(4.16667,0,0,4.16667,0,0)">
            <g transform="matrix(1.33863,0,0,1.33863,362.679,702.965)">
                <path d="M0,130.946C-0.829,130.946 -1.5,130.275 -1.5,129.446L-1.5,126.571C-1.5,125.84 -0.972,125.215 -0.251,125.092C8.232,123.652 8.563,123.595 8.563,110.217L8.563,24.502C8.563,13.9 8.328,13.538 0.19,11.585C-0.484,11.423 -0.96,10.82 -0.96,10.126L-0.96,7.61C-0.96,6.827 -0.359,6.177 0.42,6.114C9.938,5.353 21.582,3.038 30.809,0.072C30.959,0.024 31.114,0 31.268,0C31.597,0 31.922,0.109 32.188,0.316C32.58,0.621 32.795,1.099 32.765,1.594L32.703,2.537C32.491,5.729 32.049,12.369 32.049,26.119L32.049,110.217C32.049,123.469 32.049,123.469 40.362,125.099C41.065,125.237 41.573,125.854 41.573,126.571L41.573,129.446C41.573,130.275 40.902,130.946 40.073,130.946L0,130.946Z" style="fill:rgb(23,57,75);fill-rule:nonzero;"/>
            </g>
        </g>
        <g transform="matrix(4.16667,0,0,4.16667,0,0)">
            <g transform="matrix(1.33863,0,0,1.33863,404.535,872.228)">
                <path d="M0,-121.945L0.005,-121.945L0,-121.945ZM0,-127.945C-0.308,-127.945 -0.617,-127.898 -0.918,-127.801C-10.042,-124.869 -21.557,-122.579 -30.967,-121.826C-32.526,-121.702 -33.728,-120.4 -33.728,-118.836L-33.728,-116.319C-33.728,-114.932 -32.777,-113.726 -31.428,-113.402C-27.843,-112.542 -25.774,-111.882 -25.111,-110.864C-24.271,-109.574 -24.205,-106.209 -24.205,-101.944L-24.205,-16.228C-24.205,-10.644 -24.278,-6.574 -25.221,-5.039C-25.803,-4.091 -27.272,-3.596 -31.77,-2.832C-33.213,-2.587 -34.268,-1.338 -34.268,0.126L-34.268,3C-34.268,4.657 -32.925,6 -31.268,6L8.806,6C10.462,6 11.806,4.657 11.806,3L11.806,0.126C11.806,-1.309 10.79,-2.542 9.383,-2.818C5.489,-3.582 3.77,-4.059 3.203,-5.039C2.345,-6.52 2.281,-10.431 2.281,-16.228L2.281,-100.326C2.281,-114.026 2.721,-120.633 2.932,-123.808L2.994,-124.758C3.056,-125.748 2.625,-126.704 1.842,-127.313C1.308,-127.728 0.658,-127.945 0,-127.945M0,-124.945C-0.18,-122.07 -0.719,-115.6 -0.719,-100.326L-0.719,-16.228C-0.719,-2.39 -0.359,-1.671 8.806,0.126L8.806,3L-31.268,3L-31.268,0.126C-21.744,-1.492 -21.205,-2.39 -21.205,-16.228L-21.205,-101.944C-21.205,-113.085 -21.744,-114.163 -30.728,-116.319L-30.728,-118.836C-21.744,-119.555 -10.063,-121.711 0,-124.945" style="fill:white;fill-rule:nonzero;"/>
            </g>
        </g>
        <g transform="matrix(4.16667,0,0,4.16667,0,0)">
            <g transform="matrix(1.33863,0,0,1.33863,487.287,809.938)">
                <path d="M0,-17.737C14.825,-17.737 20.602,-23.413 20.602,-37.981C20.602,-58.408 9.045,-61.458 2.156,-61.458C-1.896,-61.458 -4.075,-60.815 -4.764,-60.213C-5.859,-59.357 -6.048,-56.963 -6.048,-52.536L-6.048,-17.737L0,-17.737ZM-6.048,28.509C-6.048,41.027 -0.915,43.541 7.367,43.541C18.413,43.541 25.274,32.961 25.274,15.93C25.274,-2.542 17.608,-10.423 -0.359,-10.423L-6.048,-10.423L-6.048,28.509ZM-44.206,51.034C-45.035,51.034 -45.706,50.362 -45.706,49.534L-45.706,46.659C-45.706,45.934 -45.188,45.313 -44.476,45.183C-32.631,43.014 -31.331,42.279 -31.331,27.43L-31.331,-45.886C-31.331,-60.292 -32.074,-60.44 -44.5,-62.925C-45.201,-63.065 -45.706,-63.681 -45.706,-64.396L-45.706,-67.271C-45.706,-68.099 -45.035,-68.771 -44.206,-68.771L6.109,-68.771C20.401,-68.771 28.797,-66.886 36.053,-62.05C42.96,-57.312 46.603,-50.298 46.603,-41.754C46.603,-34.428 43.483,-21.931 23.916,-15.712C42.544,-11.116 53.073,-0.331 53.073,14.492C53.073,30.305 43.968,38.878 36.33,43.285C27.544,48.354 14.795,51.034 -0.539,51.034L-44.206,51.034Z" style="fill:rgb(23,57,75);fill-rule:nonzero;"/>
            </g>
        </g>
        <g transform="matrix(4.16667,0,0,4.16667,0,0)">
            <g transform="matrix(1.33863,0,0,1.33863,481.199,798.139)">
                <path d="M0,-0.109L4.188,-0.109C21.33,-0.109 28.322,7.091 28.322,24.744C28.322,41.094 22.189,50.856 11.915,50.856C4.187,50.856 0,48.699 0,37.323L0,-0.109ZM0,-10.423L0,-43.722C0,-45.191 0,-49.662 0.639,-50.159C0.684,-50.195 0.729,-50.231 0.772,-50.269C1.073,-50.51 2.732,-51.144 6.704,-51.144C14.434,-51.144 23.65,-47.331 23.65,-29.166C23.65,-22.237 22.338,-17.672 19.522,-14.802C16.631,-11.855 11.733,-10.423 4.548,-10.423L0,-10.423ZM10.657,-61.457L-39.658,-61.457C-41.315,-61.457 -42.658,-60.113 -42.658,-58.457L-42.658,-55.582C-42.658,-54.152 -41.649,-52.92 -40.247,-52.64C-34.717,-51.534 -31.379,-50.867 -30.031,-49.294C-28.569,-47.588 -28.283,-43.521 -28.283,-37.072L-28.283,36.244C-28.283,42.833 -28.573,47.022 -30.059,48.942C-31.38,50.649 -34.381,51.457 -40.199,52.522C-41.623,52.783 -42.658,54.024 -42.658,55.473L-42.658,58.348C-42.658,60.004 -41.315,61.348 -39.658,61.348L4.009,61.348C14.885,61.348 30.24,59.968 41.627,53.398C49.608,48.794 59.121,39.836 59.121,23.306C59.121,8.953 49.84,-1.773 33.255,-7.103C45.715,-12.386 52.651,-21.452 52.651,-32.94C52.651,-42 48.783,-49.443 41.466,-54.462C33.905,-59.502 25.276,-61.457 10.657,-61.457M11.915,53.856C23.056,53.856 31.322,43.972 31.322,24.744C31.322,6.775 24.314,-3.109 4.188,-3.109L-3,-3.109L-3,37.323C-3,49.722 1.851,53.856 11.915,53.856M-3,-7.423L4.548,-7.423C20.72,-7.423 26.65,-14.25 26.65,-29.166C26.65,-47.854 17.127,-54.144 6.704,-54.144C3.648,-54.144 0.234,-53.785 -1.203,-52.527C-2.82,-51.269 -3,-48.573 -3,-43.722L-3,-7.423M10.657,-58.457C25.571,-58.457 33.299,-56.3 39.769,-51.988C46.057,-47.674 49.651,-41.206 49.651,-32.94C49.651,-16.588 34.557,-9.399 21.798,-6.704C41.206,-3.648 56.121,5.875 56.121,23.306C56.121,36.424 49.471,45.409 40.128,50.8C30.783,56.191 17.666,58.348 4.009,58.348L-39.658,58.348L-39.658,55.473C-26.9,53.137 -25.283,51.698 -25.283,36.244L-25.283,-37.072C-25.283,-52.707 -27.08,-53.066 -39.658,-55.582L-39.658,-58.457L10.657,-58.457Z" style="fill:white;fill-rule:nonzero;"/>
            </g>
        </g>
        <g transform="matrix(4.16667,0,0,4.16667,0,0)">
            <g transform="matrix(1.33863,0,0,1.33863,594.817,843.928)">
                <path d="M0,-67.981C-6.887,-67.981 -12.282,-73.613 -12.282,-80.802C-12.282,-88.111 -6.925,-93.623 0.18,-93.623C7.608,-93.623 13,-88.231 13,-80.802C13,-73.373 7.533,-67.981 0,-67.981M-18.689,25.642C-19.518,25.642 -20.189,24.971 -20.189,24.142L-20.189,21.267C-20.189,20.536 -19.662,19.911 -18.94,19.788C-10.468,18.35 -10.306,18.322 -10.306,4.914L-10.306,-31.385C-10.306,-41.27 -10.564,-41.358 -17.196,-43.623C-17.803,-43.83 -18.211,-44.4 -18.211,-45.042L-18.211,-47.558C-18.211,-48.318 -17.643,-48.958 -16.888,-49.047C-6.275,-50.307 3.286,-52.457 11.529,-55.438C11.695,-55.498 11.868,-55.527 12.04,-55.527C12.355,-55.527 12.668,-55.427 12.93,-55.234C13.333,-54.937 13.562,-54.457 13.538,-53.956C13.357,-50.164 13.18,-39.785 13.18,-33.002L13.18,4.914C13.18,17.883 13.877,18.028 22.408,19.798C23.104,19.943 23.603,20.556 23.603,21.267L23.603,24.142C23.603,24.971 22.932,25.642 22.103,25.642L-18.689,25.642Z" style="fill:rgb(23,57,75);fill-rule:nonzero;"/>
            </g>
        </g>
        <g transform="matrix(4.16667,0,0,4.16667,0,0)">
            <g transform="matrix(1.33863,0,0,1.33863,610.933,821.232)">
                <path d="M0,-34.073L0.005,-34.073L0,-34.073ZM0,-40.073C-0.343,-40.073 -0.689,-40.014 -1.02,-39.894C-9.157,-36.952 -18.606,-34.828 -29.105,-33.582C-30.614,-33.403 -31.751,-32.123 -31.751,-30.603L-31.751,-28.088C-31.751,-26.805 -30.935,-25.663 -29.721,-25.249C-26.603,-24.184 -25.127,-23.564 -24.622,-22.705C-23.903,-21.48 -23.845,-18.369 -23.845,-14.431L-23.845,21.868C-23.845,27.684 -23.911,31.608 -24.795,33.096C-25.346,34.023 -26.789,34.51 -31.231,35.264C-32.674,35.509 -33.729,36.758 -33.729,38.221L-33.729,41.096C-33.729,42.753 -32.386,44.096 -30.729,44.096L10.063,44.096C11.72,44.096 13.063,42.753 13.063,41.096L13.063,38.221C13.063,36.799 12.065,35.573 10.673,35.284C6.624,34.444 4.563,33.836 3.796,32.656C2.825,31.16 2.641,27.711 2.641,21.868L2.641,-16.048C2.641,-22.814 2.817,-33.157 2.997,-36.93C3.044,-37.932 2.588,-38.892 1.781,-39.487C1.258,-39.873 0.632,-40.073 0,-40.073M-11.86,-78.169C-19.82,-78.169 -25.822,-72.012 -25.822,-63.848C-25.822,-55.817 -19.768,-49.527 -12.04,-49.527C-3.637,-49.527 2.461,-55.55 2.461,-63.848C2.461,-72.146 -3.562,-78.169 -11.86,-78.169M0,-37.073C-0.18,-33.298 -0.359,-23.057 -0.359,-16.048L-0.359,21.868C-0.359,35.166 0.539,36.245 10.063,38.221L10.063,41.096L-30.729,41.096L-30.729,38.221C-21.205,36.604 -20.845,35.706 -20.845,21.868L-20.845,-14.431C-20.845,-24.854 -21.384,-25.572 -28.751,-28.088L-28.751,-30.603C-18.15,-31.861 -8.446,-34.018 0,-37.073M-11.86,-75.169C-5.211,-75.169 -0.539,-70.497 -0.539,-63.848C-0.539,-57.379 -5.211,-52.527 -12.04,-52.527C-17.97,-52.527 -22.822,-57.379 -22.822,-63.848C-22.822,-70.497 -17.97,-75.169 -11.86,-75.169" style="fill:white;fill-rule:nonzero;"/>
            </g>
        </g>
        <g transform="matrix(4.16667,0,0,4.16667,0,0)">
            <g transform="matrix(1.33863,0,0,1.33863,696.57,769.116)">
                <path d="M0,81.529C-0.829,81.529 -1.5,80.858 -1.5,80.029L-1.5,77.154C-1.5,76.409 -0.954,75.777 -0.216,75.67C7.485,74.547 7.485,73.679 7.485,59.184L7.485,30.253C7.485,20.158 3.939,15.04 -3.055,15.04C-7.62,15.04 -11.604,16.43 -15.211,19.284L-15.211,62.418C-15.211,73.778 -15.059,73.813 -7.087,75.679C-6.408,75.838 -5.867,76.457 -5.867,77.154L-5.867,80.029C-5.867,80.858 -6.539,81.529 -7.367,81.529L-47.62,81.529C-48.449,81.529 -49.12,80.858 -49.12,80.029L-49.12,77.154C-49.12,76.455 -48.638,75.849 -47.958,75.693C-39.397,73.717 -38.698,73.556 -38.698,60.621L-38.698,23.424C-38.698,15.184 -39.521,14.571 -45.97,12.257C-46.565,12.043 -46.963,11.478 -46.963,10.845L-46.963,8.509C-46.963,7.751 -46.398,7.112 -45.646,7.02C-36.295,5.872 -25.271,3.218 -16.875,0.094C-16.706,0.031 -16.528,0 -16.352,0C-16.04,0 -15.73,0.098 -15.471,0.286C-15.064,0.582 -14.833,1.061 -14.854,1.563C-15.004,5.187 -15.135,8.529 -15.188,11.759C-14.168,11.045 -13.22,10.362 -12.291,9.693C-10.48,8.389 -8.77,7.158 -6.911,5.983C-1.185,2.103 2.277,0.36 7.548,0.36C22.434,0.36 30.971,10.928 30.971,29.354L30.971,62.238C30.971,74.166 31.25,74.223 38.397,75.684C39.095,75.827 39.597,76.442 39.597,77.154L39.597,80.029C39.597,80.858 38.925,81.529 38.097,81.529L0,81.529Z" style="fill:rgb(23,57,75);fill-rule:nonzero;"/>
            </g>
        </g>
        <g transform="matrix(4.16667,0,0,4.16667,0,0)">
            <g transform="matrix(1.33863,0,0,1.33863,674.68,872.229)">
                <path d="M0,-72.529L0.005,-72.529L0,-72.529ZM0,-78.529C-0.03,-78.529 -0.06,-78.529 -0.09,-78.528C-0.449,-78.517 -0.793,-78.443 -1.11,-78.317C-9.397,-75.241 -20.258,-72.63 -29.476,-71.498C-30.98,-71.313 -32.11,-70.036 -32.11,-68.52L-32.11,-66.184C-32.11,-64.918 -31.316,-63.789 -30.124,-63.361C-24.2,-61.234 -23.845,-61.107 -23.845,-53.606L-23.845,-16.408C-23.845,-10.693 -24.043,-7.084 -25.057,-5.548C-25.835,-4.369 -27.724,-3.772 -31.942,-2.798C-33.304,-2.484 -34.268,-1.272 -34.268,0.125L-34.268,3C-34.268,4.656 -32.925,6 -31.268,6L8.985,6C10.642,6 11.985,4.656 11.985,3L11.985,0.125C11.985,-1.269 11.026,-2.479 9.669,-2.796L9.608,-2.811C5.975,-3.661 4.203,-4.107 3.615,-4.97C2.715,-6.291 2.641,-10.284 2.641,-14.612L2.641,-57.003C5.824,-59.347 9.323,-60.489 13.298,-60.489C15.533,-60.489 22.337,-60.489 22.337,-46.777L22.337,-17.846C22.337,-11.287 22.27,-6.847 21.372,-4.963C20.961,-4.104 20.36,-3.491 15.919,-2.844C14.445,-2.629 13.352,-1.365 13.352,0.125L13.352,3C13.352,4.656 14.695,6 16.352,6L54.449,6C56.106,6 57.449,4.656 57.449,3L57.449,0.125C57.449,-1.3 56.447,-2.529 55.05,-2.814C51.347,-3.572 50.207,-3.99 49.746,-4.761C48.894,-6.187 48.823,-10.319 48.823,-14.791L48.823,-47.675C48.823,-67.055 39.739,-78.17 23.9,-78.17C18.282,-78.17 14.485,-76.273 8.6,-72.289C6.717,-71.097 5,-69.86 3.183,-68.552C3.033,-68.444 2.883,-68.336 2.732,-68.227C2.797,-70.482 2.89,-72.815 2.992,-75.278C2.999,-75.361 3.003,-75.445 3.003,-75.529C3.003,-77.184 1.665,-78.526 0.011,-78.529L0,-78.529ZM0,-75.529C-0.18,-71.215 -0.359,-66.723 -0.359,-62.411C3.953,-65.286 6.829,-67.622 10.243,-69.778C15.813,-73.553 19.049,-75.17 23.9,-75.17C38.994,-75.17 45.823,-64.028 45.823,-47.675L45.823,-14.791C45.823,-2.211 46.542,-1.492 54.449,0.125L54.449,3L16.352,3L16.352,0.125C24.978,-1.133 25.337,-2.751 25.337,-17.846L25.337,-46.777C25.337,-59.715 19.588,-63.489 13.298,-63.489C8.806,-63.489 4.133,-62.232 -0.359,-58.457L-0.359,-14.612C-0.359,-2.031 0.539,-1.852 8.985,0.125L8.985,3L-31.268,3L-31.268,0.125C-21.923,-2.031 -20.845,-2.931 -20.845,-16.408L-20.845,-53.606C-20.845,-62.591 -22.103,-63.669 -29.11,-66.184L-29.11,-68.52C-18.869,-69.778 -7.727,-72.654 0,-75.529M0,-75.529L0.005,-75.529" style="fill:white;fill-rule:nonzero;"/>
            </g>
        </g>
        <g transform="matrix(4.16667,0,0,4.16667,0,0)">
            <g transform="matrix(1.33863,0,0,1.33863,814.443,805.439)">
                <path d="M0,-19.102C-1.796,-19.102 -4.487,-18.547 -7.11,-15.905C-10.295,-12.697 -14.068,-5.579 -13.954,10.115C-13.787,31.788 -3.825,43.128 5.93,43.128C8.442,43.128 11.262,42.268 13.774,40.75L13.774,-10.913C10.948,-16.537 4.692,-19.102 0,-19.102M14.915,57.628C14.583,57.628 14.254,57.518 13.986,57.306C13.584,56.989 13.372,56.488 13.422,55.979C13.547,54.731 13.686,51.17 13.745,48.072C10.599,50.013 7.015,52.105 3.855,53.542C-0.923,55.665 -3.384,56.551 -6.29,56.551C-14.45,56.551 -22.729,52.952 -29.004,46.677C-34.165,41.517 -40.315,32.141 -40.315,16.775C-40.315,-7.645 -19.371,-26.775 7.367,-26.775C8.868,-26.775 11.569,-26.668 13.774,-26.442L13.774,-51.87C13.774,-62.286 13.361,-62.789 2.708,-65.326C2.032,-65.486 1.555,-66.09 1.555,-66.785L1.555,-69.301C1.555,-70.086 2.159,-70.738 2.941,-70.797C14.336,-71.66 29.078,-74.284 35.802,-76.645C35.964,-76.703 36.132,-76.73 36.299,-76.73C36.624,-76.73 36.944,-76.625 37.209,-76.423C37.611,-76.116 37.832,-75.627 37.795,-75.123C37.465,-70.502 37.26,-62.005 37.26,-52.948L37.26,30.971C37.26,42.065 38.388,42.346 43.133,43.532L46.726,44.431C47.394,44.598 47.862,45.197 47.862,45.886L47.862,48.762C47.862,49.5 47.325,50.128 46.596,50.243L46.402,50.274C31.183,52.674 21.146,55.553 15.407,57.545C15.247,57.601 15.08,57.628 14.915,57.628" style="fill:rgb(23,57,75);fill-rule:nonzero;"/>
            </g>
        </g>
        <g transform="matrix(4.16667,0,0,4.16667,0,0)">
            <g transform="matrix(1.33863,0,0,1.33863,822.381,724.144)">
                <path d="M0,102.358C-9.015,102.358 -18.224,91.529 -18.383,70.833C-18.494,55.657 -14.96,48.888 -11.976,45.882C-9.716,43.606 -7.441,43.128 -5.929,43.128C-1.773,43.128 3.734,45.341 6.345,50.184L6.345,100.609C4.259,101.731 2.012,102.358 0,102.358M30.37,-11.501L30.375,-11.501L30.37,-11.501ZM30.369,-17.501C30.035,-17.501 29.699,-17.445 29.375,-17.331C22.755,-15.005 8.186,-12.418 -3.101,-11.563C-4.666,-11.444 -5.875,-10.14 -5.875,-8.571L-5.875,-6.054C-5.875,-4.665 -4.921,-3.458 -3.57,-3.136C1.412,-1.95 4.13,-1.118 5.161,0.138C6.161,1.358 6.345,4.033 6.345,8.86L6.345,32.652C4.518,32.518 2.644,32.455 1.437,32.455C-26.142,32.455 -47.745,52.244 -47.745,77.505C-47.745,93.384 -41.355,103.107 -35.994,108.468C-29.44,115.022 -20.775,118.781 -12.219,118.781C-9.04,118.781 -6.448,117.857 -1.477,115.647C0.996,114.523 3.695,113.025 6.247,111.507C6.179,113.69 6.086,115.697 6,116.56C5.898,117.579 6.323,118.579 7.127,119.214C7.664,119.637 8.32,119.859 8.986,119.859C9.316,119.859 9.648,119.804 9.969,119.693C15.652,117.72 25.597,114.868 40.708,112.486L40.901,112.455C42.359,112.225 43.433,110.968 43.433,109.492L43.433,106.616C43.433,105.239 42.496,104.039 41.161,103.705L37.567,102.807C34.83,102.123 34.198,101.693 33.817,100.988C32.948,99.382 32.831,95.392 32.831,91.701L32.831,7.782C32.831,-1.241 33.034,-9.698 33.362,-14.287C33.434,-15.295 32.994,-16.272 32.19,-16.885C31.66,-17.29 31.018,-17.501 30.369,-17.501M0,105.358C2.697,105.358 6.11,104.46 9.345,102.303L9.345,49.471C6.29,43.003 -0.719,40.128 -5.929,40.128C-12.219,40.128 -21.564,46.058 -21.383,70.856C-21.203,94.217 -10.062,105.358 0,105.358M30.37,-14.501C30.01,-9.47 29.831,-0.664 29.831,7.782L29.831,91.701C29.831,103.022 31.088,104.28 36.839,105.717L40.433,106.616L40.433,109.492C37.019,110.031 21.923,112.367 8.985,116.859C9.165,115.062 9.345,109.312 9.345,106.077C5.931,108.234 1.258,111.109 -2.695,112.906C-7.546,115.062 -9.703,115.781 -12.219,115.781C-26.595,115.781 -44.745,103.382 -44.745,77.505C-44.745,54.504 -25.158,35.455 1.437,35.455C3.415,35.455 7.188,35.635 9.345,35.994L9.345,8.86C9.345,-2.281 8.446,-3.359 -2.875,-6.054L-2.875,-8.571C8.985,-9.47 23.72,-12.165 30.37,-14.501" style="fill:white;fill-rule:nonzero;"/>
            </g>
        </g>
        <g transform="matrix(4.16667,0,0,4.16667,0,0)">
            <g transform="matrix(1.33863,0,0,1.33863,931.836,870.868)">
                <path d="M0,-67.98C-6.157,-67.98 -10.191,-60.257 -11.163,-46.721C-4.477,-46.724 1.905,-46.76 8.514,-47.255C11.438,-47.451 11.438,-47.642 11.438,-48.276C11.438,-60.447 5.501,-67.98 0,-67.98M2.517,7.673C-8.532,7.673 -18.016,3.576 -24.908,-4.174C-31.251,-11.306 -34.744,-20.906 -34.744,-31.205C-34.744,-43.57 -30.061,-55.174 -21.558,-63.88C-14.083,-71.688 -5.133,-75.653 5.032,-75.653C21.769,-75.653 34.542,-63.582 34.745,-47.576C34.745,-44.944 34.745,-42.477 32.71,-41.969C26.894,-40.876 4.962,-39.315 -11.587,-38.575C-10.903,-18.272 0.656,-9.164 12.04,-9.164C19.519,-9.164 25.117,-11.509 30.761,-17.005C31.042,-17.279 31.417,-17.431 31.807,-17.431C31.846,-17.431 31.884,-17.429 31.923,-17.426C32.354,-17.393 32.749,-17.176 33.007,-16.831L34.625,-14.674C35.015,-14.154 35.025,-13.441 34.65,-12.909C29.773,-6.001 23.697,-0.416 17.078,3.24C9.837,7.241 4.483,7.673 2.517,7.673" style="fill:rgb(23,57,75);fill-rule:nonzero;"/>
            </g>
        </g>
        <g transform="matrix(4.16667,0,0,4.16667,0,0)">
            <g transform="matrix(1.33863,0,0,1.33863,919.075,844.42)">
                <path d="M0,-28.465C1.081,-39.964 4.565,-46.722 9.533,-46.722C14.809,-46.722 19.284,-38.726 19.465,-29.126C18.971,-29.063 18.335,-29.021 17.959,-28.996C11.92,-28.543 6.07,-28.475 0,-28.465M14.565,-57.395C3.975,-57.395 -5.339,-53.275 -13.119,-45.149C-21.877,-36.183 -26.711,-24.206 -26.711,-11.447C-26.711,-0.781 -23.083,9.173 -16.496,16.58C-9.311,24.66 0.56,28.93 12.05,28.93C18.877,28.93 33.586,24.461 45.408,7.713C46.159,6.65 46.138,5.224 45.357,4.183L43.74,2.027C43.222,1.337 42.433,0.903 41.573,0.836C41.495,0.83 41.417,0.827 41.34,0.827C40.561,0.827 39.809,1.13 39.247,1.678C32.537,8.212 26.547,9.093 21.573,9.093C11.195,9.093 0.661,0.876 -0.484,-17.388C15.918,-18.155 36.815,-19.665 42.432,-20.718C42.491,-20.729 42.549,-20.742 42.607,-20.756C45.777,-21.548 45.777,-25.014 45.777,-27.799C45.564,-44.688 32.146,-57.395 14.565,-57.395M-3.225,-25.463C3.963,-25.463 10.97,-25.463 18.159,-26.002C20.854,-26.182 22.471,-26.362 22.471,-28.519C22.471,-39.3 17.26,-49.722 9.533,-49.722C2.885,-49.722 -2.327,-42.535 -3.225,-25.463M14.565,-54.395C31.636,-54.395 42.598,-41.996 42.777,-27.799C42.777,-24.924 42.598,-23.846 41.879,-23.666C36.129,-22.588 13.308,-20.971 -3.585,-20.253C-3.405,1.85 9.174,12.093 21.573,12.093C28.043,12.093 34.512,10.476 41.34,3.827L42.957,5.983C32.175,21.258 18.518,25.93 12.05,25.93C-10.413,25.93 -23.711,8.141 -23.711,-11.447C-23.711,-24.385 -18.499,-35.347 -10.952,-43.074C-2.866,-51.521 6.119,-54.395 14.565,-54.395" style="fill:white;fill-rule:nonzero;"/>
            </g>
        </g>
        <g transform="matrix(4.16667,0,0,4.16667,0,0)">
            <g transform="matrix(1.33863,0,0,1.33863,989.569,769.116)">
                <path d="M0,81.529C-0.829,81.529 -1.5,80.858 -1.5,80.029L-1.5,77.154C-1.5,76.426 -0.978,75.803 -0.261,75.677C8.045,74.211 8.204,74.183 8.204,61.699L8.204,23.424C8.204,14.558 6.99,14.164 1.155,12.272C0.537,12.071 0.118,11.495 0.118,10.845L0.118,8.509C0.118,7.747 0.689,7.106 1.446,7.019C9.014,6.146 20.138,4.239 30.157,0.113C30.341,0.037 30.535,0 30.729,0C31.037,0 31.343,0.095 31.602,0.28C32.022,0.581 32.258,1.078 32.226,1.594C32.087,3.803 31.865,9.431 31.755,14.77C36.506,7.391 43.075,0.36 50.855,0.36C57.77,0.36 62.598,4.745 62.598,11.025C62.598,16.644 57.453,24.303 52.588,25.925C51.589,26.31 50.742,26.501 49.986,26.501C48.432,26.501 47.421,25.704 46.561,24.843C46.083,24.394 45.61,23.932 45.161,23.493C42.672,21.062 41.386,19.893 39.354,19.893C36.454,19.893 33.875,22.105 31.689,26.468L31.689,61.699C31.689,73.661 32.271,73.775 41.979,75.682C42.683,75.821 43.19,76.437 43.19,77.154L43.19,80.029C43.19,80.858 42.519,81.529 41.69,81.529L0,81.529Z" style="fill:rgb(23,57,75);fill-rule:nonzero;"/>
            </g>
        </g>
        <g transform="matrix(4.16667,0,0,4.16667,0,0)">
            <g transform="matrix(1.33863,0,0,1.33863,1030.7,872.229)">
                <path d="M0,-72.529L0.005,-72.529L0,-72.529ZM0,-78.529C-0.031,-78.529 -0.061,-78.529 -0.091,-78.528C-0.486,-78.516 -0.861,-78.428 -1.203,-78.278C-11.05,-74.235 -21.997,-72.361 -29.454,-71.5C-30.968,-71.326 -32.11,-70.044 -32.11,-68.52L-32.11,-66.184C-32.11,-64.884 -31.273,-63.732 -30.036,-63.331C-27.157,-62.397 -25.675,-61.791 -25.036,-60.875C-24.327,-59.859 -24.025,-57.685 -24.025,-53.606L-24.025,-15.33C-24.025,-10.267 -24.095,-6.284 -24.975,-4.895C-25.559,-3.972 -27.383,-3.512 -31.25,-2.83C-32.684,-2.577 -33.729,-1.331 -33.729,0.125L-33.729,3C-33.729,4.656 -32.386,6 -30.729,6L10.962,6C12.619,6 13.962,4.656 13.962,3L13.962,0.125C13.962,-1.309 12.947,-2.543 11.54,-2.819C7.053,-3.7 4.669,-4.212 3.76,-5.324C2.678,-6.646 2.461,-10.133 2.461,-15.33L2.461,-50.201C4.329,-53.809 6.401,-55.637 8.626,-55.637C10.012,-55.637 10.978,-54.814 13.383,-52.464C13.829,-52.029 14.299,-51.57 14.803,-51.094C15.777,-50.125 17.162,-49.029 19.257,-49.029C20.188,-49.029 21.189,-49.243 22.401,-49.705C27.846,-51.572 33.37,-59.768 33.37,-66.005C33.37,-73.167 27.924,-78.17 20.127,-78.17C15.709,-78.17 9.474,-76.044 2.656,-67.196C2.763,-70.625 2.893,-73.666 2.987,-75.218C2.997,-75.32 3.003,-75.424 3.003,-75.529C3.003,-77.184 1.666,-78.525 0.012,-78.529L0,-78.529ZM0,-75.529C-0.18,-72.654 -0.539,-63.13 -0.539,-56.66C3.953,-64.927 11.321,-75.17 20.127,-75.17C26.056,-75.17 30.37,-71.575 30.37,-66.005C30.37,-61.153 25.697,-53.965 21.384,-52.528C20.503,-52.188 19.826,-52.029 19.257,-52.029C18.319,-52.029 17.675,-52.463 16.892,-53.246C13.657,-56.301 11.86,-58.637 8.626,-58.637C5.931,-58.637 2.516,-57.199 -0.539,-50.91L-0.539,-15.33C-0.539,-2.211 0.898,-1.852 10.962,0.125L10.962,3L-30.729,3L-30.729,0.125C-21.564,-1.492 -21.025,-2.211 -21.025,-15.33L-21.025,-53.606C-21.025,-62.95 -22.462,-64.028 -29.11,-66.184L-29.11,-68.52C-19.767,-69.598 -9.165,-71.756 0,-75.529M0,-75.529L0.005,-75.529" style="fill:white;fill-rule:nonzero;"/>
            </g>
        </g>
        <g transform="matrix(4.16667,0,0,4.16667,0,0)">
            <g transform="matrix(1.33863,0,0,1.33863,616.739,99.2316)">
                <path d="M0,382.566C-4.292,382.566 -7.784,379.074 -7.784,374.782L-7.784,49.112C-7.784,44.883 -4.396,41.432 -0.191,41.33L167.761,0.043C167.878,0.014 167.999,0 168.119,0C172.411,0 175.903,3.492 175.903,7.784L175.903,333.453C175.903,337.681 172.515,341.133 168.31,341.235L0.358,382.523C0.241,382.551 0.121,382.566 0,382.566" style="fill:rgb(23,57,75);fill-rule:nonzero;"/>
            </g>
        </g>
        <g transform="matrix(4.16667,0,0,4.16667,0,0)">
            <g transform="matrix(1.33863,0,0,1.33863,841.788,613.353)">
                <path d="M0,-385.566C-0.241,-385.566 -0.482,-385.537 -0.716,-385.479L-168.517,-344.229C-173.453,-344.021 -177.404,-339.94 -177.404,-334.954L-177.404,-9.284C-177.404,-4.165 -173.239,0 -168.119,0C-167.878,0 -167.638,-0.029 -167.403,-0.087L0.398,-41.337C5.333,-41.545 9.284,-45.626 9.284,-50.612L9.284,-376.282C9.284,-381.401 5.119,-385.566 0,-385.566M0,-382.566C3.471,-382.566 6.284,-379.753 6.284,-376.282L6.284,-50.612C6.284,-47.142 3.471,-44.328 0,-44.328L-168.119,-3C-171.59,-3 -174.404,-5.813 -174.404,-9.284L-174.404,-334.954C-174.404,-338.424 -171.59,-341.238 -168.119,-341.238L0,-382.566Z" style="fill:white;fill-rule:nonzero;"/>
            </g>
        </g>
        <g transform="matrix(4.16667,0,0,4.16667,0,0)">
            <g transform="matrix(1.33863,0,0,1.33863,664.998,153.063)">
                <path d="M0,358.51C-2.887,358.509 -5.143,356.506 -5.485,353.639C-5.828,350.772 -4.107,348.295 -1.301,347.614L137.565,313.923C147.173,311.592 153.884,303.058 153.884,293.171L153.884,5.481C153.884,2.434 156.363,-0.045 159.41,-0.045L181.14,-0.045C184.187,-0.045 186.666,2.434 186.666,5.481L186.666,353.029C186.666,356.076 184.187,358.555 181.14,358.555L0,358.51Z" style="fill:rgb(23,57,75);fill-rule:nonzero;"/>
            </g>
        </g>
        <g transform="matrix(4.16667,0,0,4.16667,0,0)">
            <g transform="matrix(1.33863,0,0,1.33863,907.477,635.043)">
                <path d="M0,-361.6L-21.73,-361.6C-25.604,-361.6 -28.756,-358.448 -28.756,-354.574L-28.756,-66.884C-28.756,-57.691 -34.995,-49.757 -43.929,-47.59L-182.795,-13.899C-186.362,-13.033 -188.55,-9.883 -188.114,-6.237C-187.679,-2.592 -184.811,-0.046 -181.14,-0.045L-0.002,0L0,0C1.876,0 3.64,-0.73 4.967,-2.057C6.295,-3.384 7.026,-5.149 7.026,-7.025L7.026,-354.574C7.026,-358.448 3.874,-361.6 0,-361.6M0,-358.6C2.223,-358.6 4.026,-356.798 4.026,-354.574L4.026,-7.025C4.026,-4.802 2.223,-2.999 -0.001,-3L-181.139,-3.045C-185.903,-3.046 -186.717,-9.86 -182.087,-10.983L-43.221,-44.674C-32.972,-47.161 -25.756,-56.337 -25.756,-66.884L-25.756,-354.574C-25.756,-356.798 -23.953,-358.6 -21.73,-358.6L0,-358.6Z" style="fill:white;fill-rule:nonzero;"/>
            </g>
        </g>
        <g transform="matrix(4.16667,0,0,4.16667,0,0)">
            <g transform="matrix(1.33863,0,0,1.33863,457.191,99.2316)">
                <path d="M0,382.566C-0.121,382.566 -0.241,382.551 -0.358,382.523L-168.311,341.235C-172.515,341.133 -175.904,337.681 -175.904,333.453L-175.904,7.784C-175.904,3.492 -172.412,0 -168.12,0C-167.999,0 -167.879,0.014 -167.762,0.043L0.191,41.33C4.396,41.432 7.784,44.883 7.784,49.112L7.784,374.782C7.784,379.074 4.292,382.566 0,382.566" style="fill:rgb(23,57,75);fill-rule:nonzero;"/>
            </g>
        </g>
        <g transform="matrix(4.16667,0,0,4.16667,0,0)">
            <g transform="matrix(1.33863,0,0,1.33863,232.141,613.353)">
                <path d="M0,-385.566C-5.119,-385.566 -9.284,-381.401 -9.284,-376.282L-9.284,-50.612C-9.284,-45.626 -5.333,-41.545 -0.398,-41.337L167.403,-0.087C167.638,-0.029 167.878,0 168.119,0C173.239,0 177.404,-4.165 177.404,-9.284L177.404,-334.954C177.404,-339.94 173.453,-344.021 168.517,-344.229L0.716,-385.479C0.482,-385.537 0.241,-385.566 0,-385.566M0,-382.566L168.119,-341.238C171.59,-341.238 174.404,-338.424 174.404,-334.954L174.404,-9.284C174.404,-5.813 171.59,-3 168.119,-3L0,-44.328C-3.471,-44.328 -6.284,-47.142 -6.284,-50.612L-6.284,-376.282C-6.284,-379.753 -3.471,-382.566 0,-382.566" style="fill:white;fill-rule:nonzero;"/>
            </g>
        </g>
        <g transform="matrix(4.16667,0,0,4.16667,0,0)">
            <g transform="matrix(1.33863,0,0,1.33863,166.455,153.002)">
                <path d="M0,358.601C-1.477,358.601 -2.865,358.027 -3.909,356.983C-4.953,355.939 -5.528,354.551 -5.528,353.075L-5.528,5.526C-5.528,2.479 -3.049,0 -0.001,0L21.728,0C24.775,0 27.254,2.479 27.254,5.526L27.254,293.217C27.254,303.103 33.965,311.637 43.573,313.969L182.439,347.66C185.245,348.34 186.965,350.818 186.623,353.684C186.281,356.552 184.025,358.555 181.138,358.556L0,358.601Z" style="fill:rgb(23,57,75);fill-rule:nonzero;"/>
            </g>
        </g>
        <g transform="matrix(4.16667,0,0,4.16667,0,0)">
            <g transform="matrix(1.33863,0,0,1.33863,195.541,635.043)">
                <path d="M0,-361.6L-21.73,-361.6C-25.604,-361.6 -28.756,-358.448 -28.756,-354.574L-28.756,-7.025C-28.756,-3.151 -25.604,0 -21.73,0L159.41,-0.045C163.081,-0.046 165.949,-2.592 166.385,-6.237C166.82,-9.883 164.632,-13.033 161.065,-13.899L22.199,-47.59C13.265,-49.757 7.026,-57.691 7.026,-66.884L7.026,-354.574C7.026,-358.448 3.874,-361.6 0,-361.6M0,-358.6C2.223,-358.6 4.026,-356.798 4.026,-354.574L4.026,-66.884C4.026,-56.337 11.243,-47.161 21.491,-44.674L160.357,-10.983C164.987,-9.86 164.173,-3.046 159.409,-3.045L-21.729,-3L-21.73,-3C-23.953,-3 -25.756,-4.802 -25.756,-7.025L-25.756,-354.574C-25.756,-356.798 -23.953,-358.6 -21.73,-358.6L0,-358.6Z" style="fill:white;fill-rule:nonzero;"/>
            </g>
        </g>
        <g transform="matrix(4.16667,0,0,4.16667,0,0)">
            <g transform="matrix(1.33863,0,0,1.33863,585.881,99.9788)">
                <path d="M0,442.126C-0.391,442.126 -0.774,441.974 -1.061,441.687L-36.542,406.205L-72.024,441.687C-72.311,441.974 -72.695,442.126 -73.085,442.126C-73.278,442.126 -73.474,442.089 -73.659,442.012C-74.219,441.78 -74.585,441.233 -74.585,440.626L-74.585,8.017C-74.585,3.596 -71.029,0 -66.658,0L-6.427,0C-2.057,0 1.5,3.596 1.5,8.017L1.5,440.626C1.5,441.233 1.134,441.78 0.574,442.012C0.388,442.089 0.193,442.126 0,442.126" style="fill:rgb(227,181,73);fill-rule:nonzero;"/>
            </g>
        </g>
        <g transform="matrix(4.16667,0,0,4.16667,0,0)">
            <g transform="matrix(1.33863,0,0,1.33863,577.278,693.829)">
                <path d="M0,-445.126L-60.231,-445.126C-65.429,-445.126 -69.658,-440.857 -69.658,-435.609L-69.658,-3C-69.658,-1.786 -68.927,-0.692 -67.806,-0.228C-67.435,-0.074 -67.045,0 -66.658,0C-65.877,0 -65.11,-0.304 -64.536,-0.878L-30.115,-35.299L4.305,-0.878C4.879,-0.304 5.647,0 6.427,0C6.814,0 7.204,-0.074 7.575,-0.228C8.696,-0.692 9.427,-1.786 9.427,-3L9.427,-435.609C9.427,-440.857 5.198,-445.126 0,-445.126M0,-442.126C3.549,-442.126 6.427,-439.208 6.427,-435.609L6.427,-3L-30.115,-39.542L-66.658,-3L-66.658,-435.609C-66.658,-439.208 -63.78,-442.126 -60.231,-442.126L0,-442.126Z" style="fill:white;fill-rule:nonzero;"/>
            </g>
        </g>
    </g>
</svg>
